# xmcd
#
# Track frame offsets:
#	150
#	3079
#	13567
#	23395
#	34734
#	45737
#	57041
#	66325
#	77967
#	90038
#	100610
#	112545
#	125385
#	138313
#	151508
#	159816
#	171887
#	182005
#	197316
#	207848
#	215561
#	225857
#	236178
#	246055
#	257261
#	267994
#
# Disc length: 3598
#
# Revision: 1
# Processed by: cddbd v1.5.1PL0 Copyright (c) Steve Scherf et al.
# Submitted via: CDex 1.51
# Normalized: r0:DSETVAR1
#
DISCID=280e0c1a
DTITLE=Various Artist - Ernest Tubb Presents Country Hoedown
DYEAR=2000
DGENRE=Country
TTITLE0=Ernest Tubb - Square Dance and Intro
TTITLE1=Joe Maphis - Fire On The Mountain
TTITLE2=Tex Ritter - The Best Time Of All
TTITLE3=Ernest Tubb - It's Been So Long, Darling
TTITLE4=Tex Ritter - I've Lived A Lot In My Time
TTITLE5=Carolina Cotton - Cattle Call
TTITLE6=Texas Troubadours - Panhandle Rag
TTITLE7=Ernest Tubb - If I Never Have Anything Else
TTITLE8=Carolina Cotton - Loving Honey Ducky Daddy
TTITLE9=Faron Young - I've Got Five Dollars (And It's Saturday Night)
TTITLE10=Country Depuities - Black Mountain Rag
TTITLE11=Ernest Tubb - You're Breaking My Heart
TTITLE12=Faron Young - You're Still Mine
TTITLE13=Hank Snow - The Rhumba Boogie
TTITLE14=Hank Snow - Caribbean
TTITLE15=Ernest Tubb - Jimmy Rodgers' Last Blue Yodel
TTITLE16=Hank Snow - Among My Souvenirs
TTITLE17=T. Texas Tyler - Bumming Around
TTITLE18=T. Texas Tyler - Remember Me
TTITLE19=Ernest Tubb - Don't Look Now (But Your Broken Heart Is Showing)
TTITLE20=Smiley Burnette - Everybody Makes Me Feel At Home
TTITLE21=Smiley Burnette - That's All Brother
TTITLE22=Ernest Tubb - When The World Has Turned You Down
TTITLE23=Tex Williams - Roses and Revolvers
TTITLE24=Tex Williams - New Nine Pound Hammer
TTITLE25=Ernest Tubb - Square Dance and Closing Theme
EXTD=YEAR: 2000
EXTT0=
EXTT1=
EXTT2=
EXTT3=
EXTT4=
EXTT5=
EXTT6=
EXTT7=
EXTT8=
EXTT9=
EXTT10=
EXTT11=
EXTT12=
EXTT13=
EXTT14=
EXTT15=
EXTT16=
EXTT17=
EXTT18=
EXTT19=
EXTT20=
EXTT21=
EXTT22=
EXTT23=
EXTT24=
EXTT25=
PLAYORDER=
